<svg width="37" height="24" viewBox="0 0 37 24" fill="none" xmlns="http://www.w3.org/2000/svg">
<path fill-rule="evenodd" clip-rule="evenodd" d="M0 1.5625C0 1.1481 0.16462 0.750671 0.457645 0.457645C0.750671 0.16462 1.1481 0 1.5625 0H34.8958C35.3102 0 35.7077 0.16462 36.0007 0.457645C36.2937 0.750671 36.4583 1.1481 36.4583 1.5625C36.4583 1.9769 36.2937 2.37433 36.0007 2.66735C35.7077 2.96038 35.3102 3.125 34.8958 3.125H1.5625C1.1481 3.125 0.750671 2.96038 0.457645 2.66735C0.16462 2.37433 0 1.9769 0 1.5625ZM0 11.9792C0 11.5648 0.16462 11.1673 0.457645 10.8743C0.750671 10.5813 1.1481 10.4167 1.5625 10.4167H24.4792C24.8936 10.4167 25.291 10.5813 25.584 10.8743C25.877 11.1673 26.0417 11.5648 26.0417 11.9792C26.0417 12.3936 25.877 12.791 25.584 13.084C25.291 13.377 24.8936 13.5417 24.4792 13.5417H1.5625C1.1481 13.5417 0.750671 13.377 0.457645 13.084C0.16462 12.791 0 12.3936 0 11.9792ZM0 22.3958C0 21.9814 0.16462 21.584 0.457645 21.291C0.750671 20.998 1.1481 20.8333 1.5625 20.8333H11.9792C12.3936 20.8333 12.791 20.998 13.084 21.291C13.377 21.584 13.5417 21.9814 13.5417 22.3958C13.5417 22.8102 13.377 23.2077 13.084 23.5007C12.791 23.7937 12.3936 23.9583 11.9792 23.9583H1.5625C1.1481 23.9583 0.750671 23.7937 0.457645 23.5007C0.16462 23.2077 0 22.8102 0 22.3958Z" fill="white"/>
</svg>
